<svg xmlns="http://www.w3.org/2000/svg" xmlns:xlink="http://www.w3.org/1999/xlink" width="548" height="395" fill="none" xmlns:v="https://vecta.io/nano"><style><![CDATA[.B{opacity:.1}.C{fill:#000}.D{opacity:.25}.E{fill:#e8f5ff}.F{fill:#ffb0b1}.G{fill:#587eec}.H{fill:#575a89}.I{fill:#eb5569}.J{stroke:#9ab1f3}.K{stroke-width:2}.L{stroke-miterlimit:10}]]></style><path opacity=".6" d="M318.251 69.55c-35.068-1.219-68.493-12.548-100.363-24.939s-63.457-26.124-97.703-32.69c-22.019-4.228-47.2-4.823-64.937 6.989C38.175 30.274 32.66 49.891 29.694 68.093c-2.231 13.697-3.525 28.109 2.574 40.934 4.246 8.9 11.78 16.383 16.992 24.909 18.13 29.667 5.313 66.252-14.338 95.243-9.216 13.606-19.908 26.552-27.02 41.019s-10.405 31.042-4.18 45.797c6.169 14.614 20.865 25.61 36.79 33.335 32.343 15.677 70.453 20.162 107.615 22.732 82.262 5.629 164.968 3.19 247.446.751 30.525-.907 61.186-1.819 91.212-6.551 16.675-2.625 33.894-6.788 46.001-16.836 15.366-12.76 19.178-34.358 8.879-50.358-17.274-26.829-65.033-33.496-77.11-62.29-6.643-15.849.181-33.506 9.841-48.206 20.714-31.53 55.444-59.196 57.272-95.242 1.259-24.758-15.436-49.546-41.252-61.262-27.055-12.291-64.575-10.739-84.533 9.575-20.553 20.928-56.673 28.981-87.631 27.908z" class="G"/><path d="M122.436 365.36s-27.699-20.953-32.932-47.606a52.69 52.69 0 0 0-16.222-29.082c-4.022-3.614-8.367-6.853-12.978-9.675" class="J K L"/><path d="M56.915 262.206c2.427 3.286 3.525 17.209 3.525 17.209s-12.978-5.114-15.411-8.395c-1.168-1.577-1.662-3.554-1.374-5.495a7.4 7.4 0 0 1 2.912-4.858c1.576-1.169 3.552-1.663 5.492-1.375a7.4 7.4 0 0 1 4.855 2.914zm23.277 10.925c.252 4.077-6.381 16.363-6.381 16.363s-8.124-11.359-8.38-15.435a7.4 7.4 0 0 1 1.869-5.299 7.39 7.39 0 0 1 10.37-.652 7.4 7.4 0 0 1 2.517 5.023h.005zm22.563 31.405c-1.834 3.649-13.764 10.905-13.764 10.905s-1.274-13.908.559-17.557a7.4 7.4 0 0 1 4.287-3.6 7.39 7.39 0 0 1 5.58.438 7.4 7.4 0 0 1 3.675 4.224c.624 1.836.503 3.843-.336 5.59zm11.729 27.595c-1.194 3.906-11.725 13.072-11.725 13.072s-3.611-13.49-2.417-17.401c.574-1.876 1.869-3.448 3.601-4.368a7.39 7.39 0 0 1 5.633-.542c1.875.574 3.446 1.87 4.366 3.602a7.4 7.4 0 0 1 .542 5.637zm-52.679-32.76c4.029.544 16.766-5.211 16.766-5.211s-10.747-8.909-14.797-9.453c-1.943-.262-3.911.26-5.47 1.451a7.4 7.4 0 0 0-1.392 10.369 7.39 7.39 0 0 0 4.893 2.844zm14.126 32.105c4.029-.69 14.439-9.988 14.439-9.988s-12.923-5.281-16.947-4.591c-.963.158-1.886.506-2.715 1.023a7.38 7.38 0 0 0-2.113 1.988 7.4 7.4 0 0 0-1.186 2.648c-.217.953-.243 1.939-.076 2.902s.521 1.882 1.045 2.707a7.39 7.39 0 0 0 2.005 2.096c.8.559 1.703.955 2.657 1.164a7.39 7.39 0 0 0 2.9.051h-.01zM93.936 360.8c4.084 0 15.92-7.403 15.92-7.403s-11.841-7.393-15.925-7.393c-1.961 0-3.841.78-5.228 2.167a7.4 7.4 0 0 0 0 10.462 7.39 7.39 0 0 0 5.228 2.167h.005z" class="G"/><path d="M391.523 184.133s17.073-30.261 42.808-38.979c10.807-3.591 20.158-10.591 26.652-19.951 3.046-4.474 5.674-9.219 7.852-14.175" class="J K L"/><g class="G"><use xlink:href="#C"/><use xlink:href="#D"/><use xlink:href="#E"/><use xlink:href="#F"/><use xlink:href="#G"/><use xlink:href="#H"/><use xlink:href="#I"/></g><g class="C"><use xlink:href="#C" class="D"/><use xlink:href="#D" class="D"/><use xlink:href="#E" class="D"/><use xlink:href="#F" class="D"/><use xlink:href="#G" class="D"/><use xlink:href="#H" class="D"/><use xlink:href="#I" class="D"/></g><path d="M392.505 183.533s3.354-34.59 23.328-52.983c8.425-7.666 14.139-17.857 16.287-29.046a88.37 88.37 0 0 0 1.456-16.126" class="J K L"/><path d="M446.096 73.707c-1.511 3.79-12.812 12.014-12.812 12.014s-2.428-13.752-.902-17.542a7.4 7.4 0 0 1 3.967-4.04 7.39 7.39 0 0 1 5.66-.05c1.819.735 3.271 2.163 4.037 3.969a7.4 7.4 0 0 1 .05 5.663v-.015zm2.876 25.559c-3.339 2.349-17.275 3.12-17.275 3.12s5.429-12.871 8.768-15.219a7.4 7.4 0 0 1 2.655-1.259 7.39 7.39 0 0 1 5.687.904c.84.524 1.565 1.21 2.135 2.02s.97 1.725 1.179 2.692a7.4 7.4 0 0 1-3.149 7.737v.005zm-14.938 35.668c-4.069.343-16.488-6.047-16.488-6.047s11.18-8.365 15.249-8.708c1.955-.164 3.894.455 5.392 1.721a7.4 7.4 0 0 1 .876 10.426c-1.266 1.499-3.075 2.434-5.029 2.598v.01zm-17.38 24.436c-3.953 1.008-17.269-3.16-17.269-3.16s9.604-10.134 13.557-11.162c1.898-.492 3.914-.21 5.604.784s2.917 2.621 3.409 4.52a7.4 7.4 0 0 1-.784 5.607c-.994 1.691-2.619 2.918-4.517 3.411zm.353-62.059c1.652 3.734 13.205 11.59 13.205 11.59s1.964-13.827.312-17.562a7.39 7.39 0 0 0-9.68-3.61c-1.765.782-3.154 2.223-3.871 4.017a7.4 7.4 0 0 0 .034 5.58v-.015zm-19.964 28.835c2.694 3.069 16.061 7.09 16.061 7.09s-2.257-13.782-4.951-16.851c-.636-.746-1.414-1.357-2.288-1.8a7.37 7.37 0 0 0-2.805-.776c-.977-.07-1.958.054-2.887.366a7.4 7.4 0 0 0-2.521 1.454c-.737.646-1.337 1.433-1.766 2.314a7.4 7.4 0 0 0-.737 2.817 7.38 7.38 0 0 0 .407 2.883 7.39 7.39 0 0 0 1.487 2.503zm-15.557 30.699c2.135 3.477 14.63 9.701 14.63 9.701s.106-13.964-2.014-17.446c-1.056-1.608-2.695-2.741-4.572-3.16a7.39 7.39 0 0 0-5.48.919 7.4 7.4 0 0 0-3.292 4.478c-.474 1.864-.204 3.84.753 5.508h-.025z" class="G"/><path d="M366.82 48.072l2.549-9.262-2.549 9.262z" fill="url(#A)"/><path d="M363.073 77.633c-.07-.121-.12-.242-.176-.353 0-.05-.05-.091-.07-.141a3.18 3.18 0 0 1-.338.136l-.68.232-.503.141a2.92 2.92 0 0 1-.449.116l.041.091.554-.126.05.625c.212 0 .408-.03.599-.03a2.47 2.47 0 0 1 .272 0h1.008l-.308-.69zm102.236 162.834c-2.367-3.19-7.091-37.427-7.091-37.427s-9.292-24.345-6.758-34.06-6.92-34.575-6.92-34.575-6.245-2.716-6.583-6.747c0 0-25.498-8.063-26.692-14.11-.967-4.959-16.781-8.517-22.461-9.641-1.733-6.994-3.475-13.52-4.76-17.083-.347-1.109-.675-2.066-.977-2.822-2.17-5.543-8.879-6.047-13.744-5.604-.21-.945-.602-1.84-1.153-2.636-.08-.274-.24-.517-.458-.7-.105-.089-.216-.17-.333-.242a1.6 1.6 0 0 0-.342-.433 2.41 2.41 0 0 0-.453-.323c-.117-.063-.239-.119-.363-.166a4.86 4.86 0 0 0-.901-.247c-.359-.074-.723-.121-1.088-.141a6.62 6.62 0 0 0 2.321-1.698c.436-.512.76-1.109.952-1.754.16-.536.231-1.094.212-1.653a4.36 4.36 0 0 1-.453.65c.211-2.232-.967-4.5-1.642-6.722-.818-2.893-.97-5.934-.444-8.894.675-4.465 2.347-8.98 3.481-13.525.002-.025.002-.05 0-.076.594-2.257.962-4.568 1.097-6.899.197-4.702-1.007-9.393-2.941-13.677-1.717-3.795-4.25-7.529-8.128-9.071-2.881-1.164-6.109-.978-9.212-1.169-6.96-.433-13.597-2.882-20.215-5.11S315.833-.34 308.868.048s-14.132 3.749-17.309 9.917c-1.008 1.925-1.587 4.067-2.791 5.876-2.256 3.412-6.295 5.12-9.664 7.473s-6.336 5.694-7.554 9.68a12.91 12.91 0 0 0-.272 6.627c.109.496.251.984.423 1.461a10.36 10.36 0 0 0 2.19 3.583c.73.763 1.568 1.413 2.488 1.93a14.64 14.64 0 0 0 3.677 1.431l-.141.469c-.081.257-.151.504-.227.781a33.33 33.33 0 0 0-.453 1.885.62.62 0 0 0 0 .136 41.19 41.19 0 0 0-.927 8.723c-.001 1.387.07 2.773.212 4.152 2.014 20.449 18.886 36.58 39.731 37.628a44.21 44.21 0 0 0 2.165.055h1.008c.327.434.649.877.956 1.311a23.81 23.81 0 0 1 .857 1.31l-.731-.756-.73-.67c-.198.272-.419.526-.66.761-.476-.168-.962-.306-1.455-.414-2.09-.463-5.273-.634-9.463.63-3.853 1.154-8.562 3.528-14.072 8.038l-26.848 16.126-14.524 8.839-5.233 12.799-8.31 32.635a7.75 7.75 0 0 0-.503.161 9.53 9.53 0 0 0-1.068-.061c-2.539-.005-4.982.973-6.815 2.732s-2.914 4.158-3.016 6.697c-8.703 10.582-9.196 21.165-7.151 26.023.185.455.418.889.695 1.295 1.339 1.935 3.842 6.924 6.381 12.24-.066.439-.106.807-.126 1.084a2.47 2.47 0 0 0 0 .272s1.51 22.833-3.526 29.379c-1.103 1.426-.937 3.301 0 5.377 3.375 7.468 16.716 17.441 16.716 17.441s16-.086 24.914-1.059l-.066 2.661-.201 16.191-.332 9.237s-3.022 19.467-4.533 24.834c-.952 3.366.146 34.534 1.103 57.448h157.645c1.853-13.556-.761-54.742-.761-54.742s-2.483-10.648-2.573-19.93a.08.08 0 0 1-.008-.033c0-.011.003-.023.008-.033l.03-2.378 1.143-.041 2.055-.07h.186s.051-.192.166-.504a9.64 9.64 0 0 1 1.103-2.202c.877-1.295 2.247-2.565 4.306-2.651 1.139-.045 2.901-.968 4.891-2.328a.09.09 0 0 0 .04 0c5.353-3.623 12.429-10.311 14.147-11.409 2.362-1.512 13.673-11.59 13.673-11.59s1.687-2.137 3.485-4.712l.066-.091c2.236-3.225 4.613-7.08 4.029-8.295-1.008-2.176.675-7.382.675-7.382 5.252-9.62-.313-22.369-2.68-25.559zM367.923 85.469a1.98 1.98 0 0 1 .091.464l-.378-.504-.121-.161-.085-.121.191-.262v.035a1.75 1.75 0 0 1 .302.549zm-1.692-4.465c-.549.111-.982.212-1.264.287-.358-.635-.7-1.27-1.007-1.915.807.469 1.568 1.014 2.271 1.628zm-.947.796c-.001-.01-.001-.02 0-.03l.041.03c.206.136.408.267.594.403.166.121.317.237.468.358a4.82 4.82 0 0 1-.322.504c-.176-.277-.343-.544-.504-.821-.1-.111-.191-.262-.277-.443zm-3.021-6.219c.973-.096 1.953-.096 2.926 0 .136 0 .256.025.377.045a4.18 4.18 0 0 1 .801.207 5.86 5.86 0 0 1 1.063 2.827l-.272.04-.267.05-1.4.252-.504.106c-.67.146-1.057.257-1.073.262-.065-.136-.131-.262-.201-.393l-.327-.655c-.101-.217-.232-.464-.338-.69-.07-.121-.121-.242-.176-.353 0-.05-.05-.091-.071-.141a1.25 1.25 0 0 1-.075-.166 50.97 50.97 0 0 1-.861-1.864c-.031-.061-.056-.126-.081-.187l.383-.025v.131l.096.554zm-120.16 312.606c-.041-7.503-.585-15.622-2.096-23.241l-1.984-9.665-.503-2.369-1.552.207h-.141c-4.23-19.961-8.652-37.548-8.652-37.548s-8.783-33.556-7.766-36.232c.131-.348-.035-1.285-.408-2.661-2.125-7.63-10.999-28.653-14.101-35.839 0-.031-.025-.066-.036-.091l-.977-2.253.731-10.723.04-.645.096-1.371-.041-.035.041-.635s-7.665-6.289-20.649-10.83c-.504-.181-1.037-.357-1.566-.529.649-4.338 1.511-9.237 2.634-14.009.106-.479.221-.942.342-1.411.106-.468.227-.922.348-1.381.191-.745.398-1.481.609-2.207a36.2 36.2 0 0 0 2.07-.73l.262-.101a37.17 37.17 0 0 0 19.453-17.417 37.21 37.21 0 0 0 3.21-25.921c-1.196-4.959-3.404-9.618-6.487-13.682-.231-.312-.478-.625-.725-.932s-.544-.65-.821-.962c1.456-3.311 3.173-6.461 3.314-9.681.025-.408.025-.817 0-1.224v-.051c-.186-2.071-1.103-4.167-3.238-6.369-3.118-3.231-7.555-4.868-11.992-5.655s-8.959-.806-13.421-1.335c-7.398-.887-14.605-3.17-22.004-3.87-9.112-.844-18.287.719-26.606 4.535-5.505 2.52-11.08 6.924-11.412 12.966-.272 4.994 3.203 9.782 2.326 14.715-.871 4.848-5.806 8.663-5.373 13.566.166 1.915 1.148 3.628 2.377 5.155.423.504.871 1.008 1.335 1.512 1.792 1.9 3.767 3.724 4.769 6.117l.116.303c.851 2.363.468 5.351-1.637 6.707.012.009.02.021.025.035.03.041.061.071.086.111.003-.008.003-.017 0-.025a5.51 5.51 0 0 0 2.875 1.794l.428.131a24.16 24.16 0 0 0-1.007 1.184l-.216.287a20.98 20.98 0 0 0-1.511 2.344 17.36 17.36 0 0 0-.71 1.36c-.691 1.383-1.19 2.852-1.486 4.369-.539 3.336.222 6.813-.594 10.079-1.008 4.031-4.195 7.125-5.993 10.87-3.405 7.055-1.476 15.334-.791 23.125.932 10.582-.579 21.21-2.085 31.722l-2.397 16.786-6.044 42.169c-.735 5.15-1.606 10.582-5.036 14.558h.035s0 .03-.035.04c1.03.451 2.125.733 3.243.837 4.477.448 9.222-1.719 13.251-4.087 3.19-1.845 6.212-3.968 9.03-6.344l-1.33 4.933a.21.21 0 0 1 0 .05c-5.686 21.669-14.832 61.394-14.832 61.394s-.831 1.728-1.908 4.303h142.022l-4.417-5.502-.488-.701zM136.946 187.826c.035-.06.06-.115.095-.171v.469.428.197c0 .07 0 0 0 0 0 .206-.045.413-.08.62v.045l.503.186.585.242c3.451 1.364 6.946 2.599 10.485 3.704a39.82 39.82 0 0 0 1.098.333l.075.625.257 1.94v.05l.645 5.347s-9.247-3.528-9.131 1.829c-.005.096-.005.192 0 .287a2.45 2.45 0 0 0 0 .383c.086 4.173 1.39 6.647 1.652 7.917-.016.052-.043.101-.08.141a2.75 2.75 0 0 0-.222 1.557 15.35 15.35 0 0 0 .211 2.691l-.805.504c-.202.126-.393.267-.59.408-1.235-4.288-2.851-8.457-4.829-12.457-1.385-2.852-2.942-5.825-2.926-8.955 0-.201 0-.408.025-.614.056-.907.229-1.803.513-2.666a13.42 13.42 0 0 1 .383-.968 23.65 23.65 0 0 1 1.103-2.207l.806-1.416c.086-.141.166-.287.247-.428l-.02-.021zM363.073 77.633c-.07-.121-.12-.242-.176-.353 0-.05-.05-.091-.07-.141a3.18 3.18 0 0 1-.338.136c-.221.086-.448.166-.68.232s-.327.101-.503.141l-.449.116.041.091c.186-.04.367-.076.554-.126l.05.625c.212 0 .408-.03.599-.03h.272 1.008c-.106-.227-.217-.464-.308-.69z" fill="url(#B)"/><path d="M253.031 151.65l-3.021 1.335s-19.697 76.567-19.697 82.755 41.765 40.622 41.765 40.622l6.517-44.014s-9.357-100.931-25.564-80.698z" class="E"/><path d="M344.646 127.295l-17.451-9.111a34.97 34.97 0 0 0-5.117-11.666c-2.553-3.689-5.948-7.312-10.178-9.202-10.692-4.797 45.225-29.979 45.225-29.979a90.94 90.94 0 0 0 3.108 8.92c2.881 7.115 7.66 16.317 13.819 18.938 10.471 4.46-29.406 32.1-29.406 32.1z" class="F"/><path d="M360.233 76.257c-2.389 8.408-7.358 15.853-14.204 21.282s-15.224 8.571-23.951 8.979c-2.553-3.689-5.948-7.312-10.178-9.202-10.692-4.797 45.225-29.979 45.225-29.979a90.94 90.94 0 0 0 3.108 8.92z" class="B C"/><path d="M361.804 63.543a41.71 41.71 0 0 1-7.017 23.165 41.67 41.67 0 0 1-18.697 15.359 41.64 41.64 0 0 1-24.075 2.376c-8.083-1.608-15.508-5.578-21.335-11.409s-9.797-13.259-11.405-21.347-.783-16.471 2.371-24.089 8.495-14.13 15.348-18.71a41.65 41.65 0 0 1 23.15-7.024 41.45 41.45 0 0 1 15.972 3.121c5.065 2.085 9.668 5.155 13.541 9.03s6.941 8.48 9.026 13.548a41.51 41.51 0 0 1 3.121 15.981z" class="F"/><path d="M367.817 121.943l-11.361 26.527-10.022 17.607h-32.081l-9.358-24.073 3.793-24.964h24.501l15.819-.892 5.343-1.784 3.445 1.955 9.921 5.624z" class="H"/><g class="C"><path d="M363.904 86.582s7.086 1.512.741 6.717-28.239 21.759-28.239 21.759 7.691 6.854 6.099 14.881l25.479-14.21 4.532-22.738s.509-6.833-8.612-6.41z" class="B"/><path d="M341.417 115.059l-16.206 2.676s3.344 12.372 1.672 15.884a2.25 2.25 0 0 0-.126.338l-6.613 17.884 4.956 14.045 17.153-23.408-5.847-8.859s6.18-8.194 9.856-11.036-4.845-7.524-4.845-7.524z" class="B"/></g><path d="M341.417 114.369l-16.206 2.671s3.344 12.371 1.672 15.884a2.28 2.28 0 0 0-.126.337l-6.613 17.885 4.956 14.044 17.153-23.422-5.847-8.86s6.18-8.193 9.856-11.036-4.845-7.503-4.845-7.503z" fill="#dce6f2"/><path d="M364.584 85.247s7.086 1.512.736 6.717l-28.914 23.095s8.356 5.518 6.769 13.541l25.479-14.206 4.532-22.737s.504-6.833-8.602-6.41z" class="H"/><path d="M323.191 108.095s1.547 2.893 8.371 8.108c0 0-11.362 6.047-7.016 14.549l-17.38-4.536-2.674-8.36 18.699-9.761z" class="B C"/><path d="M322.521 107.43s1.546 2.892 8.371 8.108c0 0-11.362 6.017-7.016 14.543l-17.375-4.535-2.674-8.355 18.694-9.761z" class="H"/><path d="M367.817 121.943l-11.361 26.527-10.002 17.607h-32.101l-9.358-24.073 3.788-24.964h6.814c-.111 5.825 2.014 12.669 1.878 15.213-.232 4.183 6.235 26.749 6.235 26.749s13.532-21.901 18.876-23.851c3.359-1.225 10.475-11.414 15.305-18.832l9.926 5.624z" class="B C"/><path d="M412.575 261.536l-1.154 1.451s8.356 41.962 6.044 51.492c-.393 1.717-.617 3.469-.67 5.23v.076c-.408 9.696 2.518 22.279 2.518 22.279s2.337 37.089 1.007 52.343H263.884c-.916-22.556-1.903-51.779-1.007-55.019 1.511-5.347 4.533-24.743 4.533-24.743l.332-9.192.272-18.781.534-13.263c.317-5.211.76-9.6 1.37-11.757.375-1.635.591-3.302.644-4.979 0-.156 0-.317.031-.479 0-.504.05-1.048.07-1.607v-.504c.096-3.245.061-7.095-.045-11.086v-.661l-.353-8.949-1.007-16.741-19.213-63.696 5.177-12.76 14.368-8.808 26.567-16.05c12.958-10.659 21.489-9.379 24.743-8.209a8.36 8.36 0 0 1 .926.378c.101.05.182.09.257.136a2.08 2.08 0 0 1 .297.171c-.89.429-1.664 1.067-2.256 1.859-.666.902-1.141 1.931-1.395 3.024-.17.677-.29 1.366-.357 2.061-.066.731-.091 1.487-.091 2.248.036 1.668.179 3.333.428 4.983v.111c.166 1.179.373 2.333.574 3.417-.002.018-.002.037 0 .055l.62 3.442.08.504a11.54 11.54 0 0 1 .156 2.016 24.5 24.5 0 0 0 .655 4.837l.448 2.117.741 3.225.463 1.88.186.761.101.398 2.951 11.086.69 2.444s7.585-12.27 13.638-19.255l.257-.287c.6-.69 1.189-1.32 1.753-1.875 1.234-1.229 2.342-2.106 3.233-2.429.19-.069.374-.155.549-.257 2.478-1.406 6.477-6.51 10.219-11.857.367-.504.725-1.053 1.087-1.572l2.398-3.558 1.672-2.555 4.291-6.843 3.495-.156.609-.031h.408l15.869-.735s.685.115 1.813.342a.32.32 0 0 1 .187.041c5.63 1.118 21.273 4.661 22.23 9.574 1.168 6.017 26.4 14.045 26.4 14.045.332 4.031 6.512 6.687 6.512 6.687s9.357 24.743 6.854 34.438c-2.473 9.575 6.436 33.259 6.673 33.925l-1.707 2.156-42.239 53.462z" class="E"/><path d="M363.899 84.824s15.446-4.384 18.957 4.641 11.362 45.474 11.362 45.474-20.387 3.845-25.731 0c-3.134-2.282-7.013-3.297-10.863-2.842l-11.528 7.856-3.404-1.007s18.442-27.434 22.451-36.757 5.364-13.49-1.244-17.365z" class="B C"/><path d="M363.23 82.808s15.456-4.384 18.981 4.641 11.362 45.475 11.362 45.475-20.382 3.845-25.73 0c-3.133-2.282-7.01-3.298-10.858-2.843l-11.538 7.857-3.405-1.008s18.443-27.434 22.452-36.757 5.343-13.48-1.264-17.365z" class="E"/><g class="C"><path d="M259.548 228.216s11.528 2.842 13.704 9.363-8.521 6.687-8.521 6.687-6.517-11.535-5.183-16.05zm42.939 48.146s-28.233 57.845-21.716 63.363 21.716-63.363 21.716-63.363zm38.93-42.628s22.558 56.188 18.045 64.866 9.69 0 9.69 0l-27.735-64.866z" class="B"/></g><path d="M372.829 289.237s-76.189 3.679-53.964 27.419 67.834 1.007 67.834 1.007l-13.87-28.426z" class="F"/><path d="M361.804 63.543c.007 5.468-1.066 10.883-3.157 15.934a29.89 29.89 0 0 1-2.075.161c-1.008-2.212-.469-4.767-.449-7.201s-.876-5.296-3.218-5.951c-4.668-1.315-7.892 7.418-12.495 5.841-3.525-1.199-2.603-6.551-4.633-9.64-1.607-2.444-4.825-3.134-7.328-4.666-5.323-3.27-5.162-8.501-7.635-13.45-2.588-5.185-8.058-3.653-12.807-.595-3.606 2.328-6.718 5.447-10.576 7.302-3.339 1.612-7.091 2.197-10.793 2.283a23.7 23.7 0 0 1-6.768-.716c2.599-9.779 8.665-18.279 17.065-23.913s18.563-8.019 28.591-6.71 19.238 6.224 25.912 13.827 10.357 17.375 10.361 27.494h.005z" class="B C"/><path d="M308.022 42.64c-3.611 2.328-6.718 5.442-10.576 7.307-3.339 1.608-7.091 2.192-10.793 2.278-4.532.101-9.412-.695-12.51-3.971-2.845-3.023-3.525-7.675-2.321-11.641s4.089-7.256 7.478-9.64 7.323-4.031 9.569-7.443c1.189-1.804 1.763-3.931 2.75-5.851 3.158-6.143 10.259-9.469 17.123-9.882s13.669 1.633 20.206 3.85 13.124 4.656 20.024 5.115c3.072.191 6.265 0 9.116 1.164 3.832 1.557 6.345 5.281 8.058 9.071 1.918 4.273 3.112 8.94 2.911 13.606-.423 9.963-7.001 19.739-4.11 29.283.766 2.545 2.201 5.155 1.435 7.7-1.118 3.714-5.907 4.56-9.78 4.737-1.007-2.212-.468-4.772-.448-7.201s-.877-5.296-3.213-5.951c-4.674-1.305-7.897 7.413-12.49 5.841-3.5-1.204-2.594-6.551-4.629-9.64-1.606-2.449-4.829-3.134-7.327-4.666-5.324-3.27-5.163-8.501-7.635-13.45-2.609-5.211-8.084-3.679-12.838-.615z" class="H"/><path d="M234.145 234.399l-3.842 1.341s1.51 22.737-3.526 29.258 16.539 22.732 16.539 22.732 29.573-.166 30.409-2.52-1.511-42.128-1.511-42.128-15.874-6.188-14.539-16.05c0 0-4.845 23.236-12.027 22.233s-15.335-7.004-11.503-14.866z" class="E"/><path d="M246.963 256.3c5.599 0 10.138-4.153 10.138-9.277s-4.539-9.277-10.138-9.277-10.138 4.153-10.138 9.277 4.539 9.277 10.138 9.277z" class="B C"/><path d="M258.047 235.07s-2.014-61.52-19.55-47.813-17.708 30.1-14.369 34.942 14.046 29.087 14.046 29.087c1.675.971 3.556 1.532 5.489 1.635a12.24 12.24 0 0 0 5.632-1.039 12.26 12.26 0 0 0 4.545-3.486c1.218-1.506 2.063-3.278 2.465-5.173l1.742-8.153z" class="F"/><path d="M367.44 79.24a1.48 1.48 0 0 0-.454-.695c-.866-.791-2.729-1.068-5.539-.826l.115 1.33c3.747-.322 4.488.423 4.583.549v.126l.116.166c.467.628.798 1.347.972 2.111s.185 1.555.035 2.324c-.82 4.107-5.862 7.377-5.912 7.413l-.121.071-.075.116c-2.176 3.23-14.48 12.346-17.698 14.705l-.282-.323c-1.44 1.25-14.101 12.341-14.786 16.589-.444 2.666-3.445 3.699-4.533 3.987-1.148-.872-4.875-3.84-6.814-7.166-1.818-3.13 5.5-9.237 6.144-11.621l-1.007-1.033c-.106.383-9.503 9.172-6.89 13.662 2.095 3.603 5.923 6.687 7.263 7.705-.428 3.89-3.093 26.733-7.187 32.145-5.087 6.728-9.362 40.632-8.889 52.469.418 10.517-2.327 30.382-11.493 38.913-1.587 1.542-3.501 2.705-5.6 3.403a14.69 14.69 0 0 1-6.522.629h-.111-.111c-.131 0-13.426 1.36-24.597-8.063-9.14-7.695-14.318-20.253-15.395-37.336h-.222l-.091-4.974a9.69 9.69 0 0 0 6.227-3.719c1.517-1.999 2.2-4.509 1.906-7.002s-1.541-4.774-3.481-6.365-4.421-2.369-6.921-2.168a9.69 9.69 0 0 0-6.488 3.243c-1.662 1.88-2.53 4.331-2.424 6.839s1.181 4.876 2.996 6.608a9.69 9.69 0 0 0 6.74 2.68h.111l.09 4.944-.443.03c1.108 17.637 6.547 30.684 16.116 38.742 7.273 6.03 16.563 9.072 25.992 8.511a18.84 18.84 0 0 0 2.015.111c4.322.022 8.48-1.651 11.583-4.661 9.655-8.995 12.591-29.591 12.132-40.466-.503-12.543 3.984-45.227 8.486-51.179 4.412-5.84 7.086-28.598 7.555-33.007 1.596-.448 5.207-1.864 5.822-5.543.443-2.661 8.899-10.86 14.101-15.4l-.156-.182c2.8-2.045 11.508-8.496 15.824-12.638 1.34-1.285 2.669-2.57 4.059-3.795 1.672-1.482 3.798-3.835 4.357-6.617a6.89 6.89 0 0 0 .002-2.784 6.87 6.87 0 0 0-1.1-2.557z" class="B C"/><path d="M322.386 128.111c-.212-.146-5.228-3.739-7.741-8.063-2.609-4.49 6.789-13.273 6.889-13.656l1.008 1.033c-.64 2.378-7.958 8.491-6.139 11.615 2.291 3.946 7.116 7.398 7.166 7.433l-1.183 1.638z" fill="#353146"/><path d="M342.808 107.606l-.786-1.083c.161-.116 15.98-11.565 18.473-15.269l.08-.111.116-.076c.051-.035 5.092-3.301 5.913-7.413a5.59 5.59 0 0 0-1.007-4.43l-.116-.171v-.121c-.101-.131-.841-.872-4.588-.549l-.116-1.335c2.815-.242 4.674.035 5.54.826a1.52 1.52 0 0 1 .458.701c.545.766.927 1.636 1.122 2.555a6.87 6.87 0 0 1 .016 2.791c-.559 2.787-2.679 5.14-4.356 6.617-1.385 1.225-2.72 2.52-4.054 3.795-5.062 4.853-16.141 12.875-16.695 13.273zm-101.119 96.255l-1.334.024.149 8.117 1.334-.024-.149-8.117z" class="E"/><path d="M240.244 205.091a9.75 9.75 0 1 0 0-19.502 9.75 9.75 0 1 0 0 19.502z" class="G"/><path d="M240.244 203.438c4.47 0 8.094-3.625 8.094-8.098a8.1 8.1 0 0 0-8.094-8.098c-4.47 0-8.093 3.626-8.093 8.098s3.623 8.098 8.093 8.098z" class="E"/><path d="M284.14 257.419a18.56 18.56 0 0 1-2.014-.106c-9.429.556-18.717-2.486-25.992-8.511-9.569-8.063-14.998-21.095-16.116-38.747l2.014-.126c1.078 17.083 6.255 29.646 15.401 37.336 11.17 9.398 24.461 8.063 24.592 8.063h.111.111a14.71 14.71 0 0 0 6.523-.631c2.1-.698 4.015-1.86 5.604-3.401 9.161-8.531 11.906-28.396 11.488-38.913-.504-11.847 3.772-45.752 8.863-52.474 4.457-5.891 7.222-32.443 7.253-32.71l.075-.756.745-.131c.046 0 4.397-.826 4.941-4.082.705-4.243 13.346-15.334 14.781-16.589l1.315 1.512c-5.223 4.535-13.679 12.739-14.102 15.405-.614 3.689-4.225 5.1-5.817 5.543-.503 4.414-3.157 27.167-7.554 33.007-4.502 5.952-8.99 38.636-8.486 51.179.433 10.875-2.473 31.475-12.127 40.465a16.52 16.52 0 0 1-11.609 4.667z" fill="#353146"/><g class="B C"><path d="M366.095 51.63l2.518-9.222-2.518 9.222zm-8.425 23.997c-1.008-2.212-.469-4.772-.449-7.201s-.876-5.271-3.213-5.951c-4.673-1.305-7.897 7.418-12.49 5.841-3.525-1.204-2.593-6.551-4.628-9.64-1.607-2.449-4.825-3.134-7.323-4.666-5.328-3.27-5.167-8.501-7.635-13.45-2.593-5.19-8.058-3.659-12.812-.595-3.611 2.328-6.718 5.447-10.576 7.307-3.339 1.608-7.091 2.192-10.793 2.278-4.507.106-9.413-.695-12.51-3.971-2.387-2.52-3.248-6.213-2.755-9.675-.085.237-.161.474-.236.711-1.209 3.966-.504 8.627 2.321 11.641 3.098 3.276 8.003 4.072 12.51 3.971 3.707-.086 7.454-.67 10.798-2.278 3.868-1.864 6.975-4.979 10.576-7.307 4.754-3.064 10.224-4.596 12.812.595 2.468 4.949 2.312 10.179 7.635 13.45 2.519 1.512 5.717 2.217 7.328 4.666 2.015 3.099 1.123 8.436 4.629 9.64 4.588 1.572 7.811-7.146 12.484-5.84 2.337.655 3.239 3.527 3.214 5.951s-.549 4.989.448 7.201c3.873-.176 8.662-1.008 9.785-4.737a5.43 5.43 0 0 0 .212-1.648c-1.637 2.827-5.847 3.553-9.332 3.709z" class="B"/></g><path d="M448.69 199.795l5.847 6.188s4.679 34.101 7.015 37.291 7.857 15.878 2.675 25.408c0 0-1.672 5.185-.67 7.357s-7.514 13.042-7.514 13.042-11.196 10.028-13.538 11.535-14.701 13.54-18.876 13.706-5.539 5.352-5.539 5.352l-23.56.837s-13.014-.681-15.844 1.159c0 0 1.511-19.895-13.029-32.937l18.544-6.687s7.02-3.024 9.191-6.183c1.365-1.937 3.302-3.398 5.54-4.178 0 0 5.177-3.679 5.343-5.684s6.331-4.465 6.331-4.465l-3.49-29.807 1.838-49.486s5.847-41.463 18.211-39.12 21.525 56.672 21.525 56.672z" class="B C"/><path d="M450.704 199.795l5.847 6.188s4.679 34.101 7.016 37.291 7.856 15.878 2.674 25.408c0 0-1.667 5.185-.665 7.357s-7.519 13.042-7.519 13.042-11.195 10.028-13.537 11.535-14.701 13.54-18.876 13.706-5.54 5.352-5.54 5.352l-23.56.837s-13.023-.681-15.844 1.159c0 0 1.511-19.895-13.028-32.937l18.543-6.687s7.021-3.024 9.191-6.183c1.366-1.937 3.303-3.398 5.54-4.178 0 0 5.177-3.679 5.343-5.684s6.331-4.465 6.331-4.465l-3.49-29.807 1.838-49.486s5.847-41.463 18.211-39.12 21.525 56.672 21.525 56.672z" class="E"/><g class="C"><path d="M428.968 249.784s17.209-4.535 21.721 1.008-21.721-1.008-21.721-1.008zm-4.009 7.605c5.847 4.097 23.892 4.263 23.892 4.263l-23.892-4.263zm8.854 20.479c.503.167 12.404 12.876 17.4 9.031s-17.4-9.031-17.4-9.031zM273.539 171.207s3.495 24.078 1.773 33.884 4.563 21.956 4.563 21.956l-6.336-55.84z" class="B"/></g><path d="M196.162 180.998c-4.029 3.16-6.97 10.638-9.101 18.857-3.716 14.337-4.93 30.962-4.93 30.962s-32.081-7.358-29.744-10.699c1.47-2.101-.504-17.935-2.151-29.414l-1.858-12.049s58.813-6.354 47.784 2.343z" class="F"/><path d="M196.162 180.328c-4.029 3.165-6.97 10.638-9.101 18.857-6.391 1.942-13.189 2.117-19.672.507s-12.41-4.946-17.153-9.653l-1.858-12.054s58.813-6.35 47.784 2.343z" class="B C"/><path d="M213.406 162.318c.003 8.765-3.092 17.248-8.739 23.949s-13.481 11.186-22.115 12.663a37.09 37.09 0 0 1-25.064-4.593 37.13 37.13 0 0 1-16.194-19.684 37.16 37.16 0 0 1 .311-25.494c3.108-8.194 9.013-15.025 16.67-19.282s16.572-5.667 25.168-3.98a37.1 37.1 0 0 1 21.799 13.2 37.12 37.12 0 0 1 8.164 23.221z" class="F"/><path d="M242.656 394.407H232.08l-.891-18.691-.932-19.346 6.23-.892 1.546-.207h.126l2.458 11.984c1.324 7.148 2.014 14.399 2.06 21.669v1.481c.03 1.346 0 2.691-.021 4.002z" class="B C"/><path d="M240.627 394.407H107.992l.957-2.097 16.005-66.105a.21.21 0 0 0 0-.05c.674-2.67 1.488-5.303 2.438-7.887.061-.176.141-.344.237-.504 2.669-4.344 6.013-9.025 1.334-15.712s-3.022-36.112-3.022-36.112 5.681-25.08 11.695-38.454c.912-2.072 2.207-3.953 3.817-5.544a15.63 15.63 0 0 1 1.672-1.421c.449-.337.916-.648 1.4-.932l.096-.06a20.19 20.19 0 0 1 8.224-2.555 23.43 23.43 0 0 1 6.169.171c9.751 1.431 17.557 3.825 23.762 6.551 16.816 7.393 21.907 17.3 22.008 17.507l.04.085c.675 1.577 10.546 24.637 14.102 35.396.921 2.802 1.425 4.772 1.224 5.311-1.008 2.671 7.685 36.107 7.685 36.107s4.029 16.126 8.058 35.028l.503 2.368 2.126 10.422c1.337 7.197 2.026 14.499 2.06 21.82.074 2.281.089 4.503.045 6.667z" class="I"/><path d="M152.054 205.474s-9.15-3.527-9.04 1.824 2.231 7.912 1.562 8.693.332 5.463.332 5.463 12.364 0 18.045 2.56 26.621 7.689 29.296 9.252 12.59 8.566 12.59 8.566l.892-13.263s-10.249-8.471-27.065-12.815-26.612-10.28-26.612-10.28z" class="B C"/><path d="M152.054 204.804s-9.15-3.528-9.04 1.824 2.231 7.912 1.562 8.693.332 5.462.332 5.462 12.364 0 18.045 2.565 26.621 7.69 29.296 9.247 12.59 8.567 12.59 8.567l.902-13.223s-10.249-8.471-27.065-12.815-26.622-10.32-26.622-10.32z" class="I"/><g class="C"><path d="M179.678 236.723s17.486 18.942 16.595 24.188-16.595-24.188-16.595-24.188zm-28.404 68.428s-12.817 11.817-16.595 12.487 2.896 2.898 7.237 1.119 13.598-6.46 13.598-6.46l-4.24-7.146z" class="B"/></g><path d="M245.834 394.407h-29.89l-10.652-9.011c-4.029-3.235-6.934-7.997-8.788-11.827-.418-.872-.78-1.688-1.088-2.429-.55-1.276-1.034-2.579-1.45-3.905l22.134-13.153c1.224 1.041 2.373 2.166 3.44 3.367l.267.307c1.229 1.451 2.312 3.099 2.407 4.45.111 1.572 4.483 7.654 8.95 13.495 4.532 5.941 9.176 11.62 9.483 12.003 0 0 .765 1.044 2.014 2.646l3.173 4.057z" class="F"/><path d="M205.242 139.097c-1.062 2.398-2.014 4.888-2.155 7.559-.398 7.71.247 24.949-8.285 28.819-4.225 1.905-8.748-2.277-13.381-2.378-3.334-.071-6.391 2.046-8.426 4.691s-3.299 5.785-4.774 8.779c-1.343 2.717-2.891 5.328-4.628 7.811-.52.759-1.092 1.482-1.713 2.161-5.202-2.196-9.834-5.552-13.544-9.811s-6.399-9.309-7.863-14.766-1.663-11.175-.583-16.721a37.14 37.14 0 0 1 6.814-15.278c3.404-4.508 7.792-8.179 12.828-10.733a37.07 37.07 0 0 1 16.235-4.005 37.06 37.06 0 0 1 16.343 3.535c5.108 2.407 9.6 5.95 13.132 10.357v-.02z" class="B C"/><path d="M202.417 145.295c-.403 7.71.247 24.949-8.29 28.815-4.225 1.904-8.748-2.273-13.381-2.374-3.334-.076-6.386 2.046-8.426 4.687s-3.293 5.785-4.774 8.783a60.16 60.16 0 0 1-4.628 7.811c-1.038 1.471-2.186 2.948-3.783 3.774-2.78 1.452-6.149.635-9.13-.297a149.98 149.98 0 0 1-11.433-4.122 11.56 11.56 0 0 0 .131-1.713c-.111.211-.231.408-.352.619l-.237.414a45.33 45.33 0 0 0-1.229 2.287c-.146.298-.287.605-.413.913a11.62 11.62 0 0 0-.942 3.608c-.256 3.361 1.401 6.551 2.871 9.574 5.656 11.696 9.151 25.373 4.895 37.644-1.843 5.336-5.036 10.078-7.368 15.233a49.24 49.24 0 0 0-3.439 29.117c1.163 6.108 3.495 12.155 2.921 18.348-1.008 10.658-10.194 18.59-19.395 24.043-4.971 2.933-11.055 5.543-16.333 3.225 3.365-3.931 4.231-9.368 4.956-14.498l5.968-41.998 2.382-16.72c1.481-10.471 2.982-21.059 2.055-31.596-.675-7.766-2.579-16.01.786-23.04 1.777-3.724 4.945-6.808 5.932-10.819.811-3.26.056-6.727.59-10.048.292-1.511.786-2.976 1.47-4.354a21.4 21.4 0 0 1 3.374-5.15c-1.349-.393-2.608-.933-3.374-2.061 2.166-1.411 2.493-4.591 1.511-6.98s-2.946-4.208-4.714-6.092-3.47-4.082-3.691-6.652c-.429-4.893 4.457-8.683 5.318-13.51.871-4.914-2.574-9.691-2.297-14.665.323-6.012 5.842-10.381 11.292-12.915 8.223-3.809 17.306-5.374 26.329-4.536 7.343.696 14.449 2.968 21.772 3.85 4.417.504 8.894.555 13.28 1.331s8.784 2.413 11.871 5.634c8.138 8.491-1.612 15.48-2.075 24.43z" class="H"/><path d="M195.608 373.574c-2.569-1.114-7.242-.448-15.265-2.892s-9.569-13.491-9.569-13.491v-.035c-.096-.252-.841-1.895-5.887-7.649-5.576-6.355-17.627-38.45-17.627-38.45s-10.687-11.485-10.35-15.718-1.898-15.495-1.677-28.094 24.058-20.953 24.058-20.953c45.896-8.138 35.088 44.804 33.864 48.816s5.127 14.845 5.127 14.845c-.896 4.717 3.676 12.019 3.676 12.019s1.108 6.46 1.335 8.914c.013.114.038.225.076.333.735 2.313 6.728 4.409 9.166 5.684 2.563 1.341 10.807 13.042 10.807 13.042 1.778 8.592-25.176 24.758-27.734 23.629z" class="B C"/><path d="M196.943 371.558c-2.564-1.118-7.243-.448-15.26-2.897s-9.569-13.485-9.569-13.485v-.036c-.091-.257-.841-1.894-5.888-7.649-5.575-6.355-17.626-38.455-17.626-38.455s-10.687-11.479-10.355-15.712-1.894-15.496-1.672-28.084 24.043-20.938 24.043-20.938c45.895-8.139 35.088 44.804 33.864 48.815s5.127 14.846 5.127 14.846c-.897 4.716 3.676 12.018 3.676 12.018s1.108 6.461 1.34 8.915a1.26 1.26 0 0 0 .07.332c.736 2.314 6.729 4.41 9.171 5.685 2.559 1.335 10.808 13.041 10.808 13.041 1.788 8.577-25.166 24.743-27.729 23.604z" class="I"/><path d="M161.523 271.942s20.049 21.165 25.282 21.165-25.282-21.165-25.282-21.165z" class="B C"/><path d="M196.942 371.558c-2.563-1.118-7.242-.448-15.259-2.897s-9.569-13.485-9.569-13.485v-.035c5.313-3.528 18.77-13.491 24.073-17.134 3.732-2.555 6.779-6.309 8.562-8.799.735 2.313 6.728 4.41 9.171 5.685 2.558 1.335 10.807 13.041 10.807 13.041 1.733 8.597-25.221 24.763-27.785 23.624z" fill="#ff748e"/><g class="B C"><path d="M123.851 175.455c.025.04.061.076.091.116l.468-.564a3.66 3.66 0 0 1-.559.448zm11.684 23.1c.212-2.797 1.708-5.261 3.108-7.72l-2.74-1.083a11.51 11.51 0 0 0 .131-1.709c-1.415 2.52-2.956 4.999-3.173 7.836-.257 3.367 1.4 6.551 2.871 9.575 5.661 11.691 9.151 25.368 4.895 37.643-1.848 5.332-5.036 10.079-7.368 15.234-4.075 9.129-5.273 19.284-3.435 29.112 1.154 6.113 3.49 12.155 2.916 18.348-1.007 10.658-10.188 18.59-19.394 24.037-3.762 2.228-8.159 4.269-12.364 4.122a15.31 15.31 0 0 1-1.3 1.789c5.283 2.334 11.362-.292 16.333-3.235 9.211-5.442 18.412-13.354 19.42-24.032.574-6.193-1.763-12.236-2.921-18.348a49.27 49.27 0 0 1 3.424-29.112c2.317-5.15 5.54-9.902 7.368-15.234 4.256-12.275.761-25.952-4.895-37.643-1.465-3.044-3.132-6.214-2.876-9.58zm68.947-77.63c-.496-.508-1.028-.98-1.592-1.411 6.104 7.922-2.709 14.654-3.147 23.181-.393 7.71.251 24.954-8.285 28.814-4.22 1.91-8.748-2.272-13.376-2.373-3.339-.071-6.391 2.051-8.431 4.691s-3.294 5.785-4.769 8.779c-1.347 2.716-2.895 5.327-4.634 7.811-1.007 1.476-2.185 2.948-3.787 3.779-2.77 1.446-6.139.635-9.126-.302-2.904-.914-5.781-1.922-8.632-3.024-.006.525-.049 1.049-.131 1.567a147.18 147.18 0 0 0 11.438 4.122c2.981.938 6.35 1.749 9.125.303 1.597-.832 2.755-2.308 3.788-3.785a59.51 59.51 0 0 0 4.628-7.805c1.481-2.994 2.73-6.143 4.774-8.784s5.092-4.757 8.426-4.686c4.633.1 9.161 4.283 13.381 2.373 8.537-3.86 7.887-21.104 8.285-28.815.463-8.964 10.213-15.949 2.065-24.435z" class="B"/></g><path d="M138.119 191.697l-1.229 2.287-.413.913c-2.639-2.661-9.065-8.985-12.651-10.946a21.5 21.5 0 0 1 3.374-5.15s8.547 4.52 10.919 12.896z" class="B C"/><path d="M138.356 191.284c-1.979-8.965-11.156-13.818-11.156-13.818a21.4 21.4 0 0 0-3.374 5.15c3.782 2.071 10.753 9.015 13.064 11.369l1.466-2.701z" class="I"/><defs><linearGradient id="A" x1="368.094" y1="48.072" x2="368.094" y2="38.81" gradientUnits="userSpaceOnUse"><stop stop-color="gray" stop-opacity=".25"/><stop offset=".54" stop-color="gray" stop-opacity=".12"/><stop offset="1" stop-color="gray" stop-opacity=".1"/></linearGradient><linearGradient id="B" x1="231050" y1="331838" x2="231050" y2="23136.5" gradientUnits="userSpaceOnUse"><stop stop-color="gray" stop-opacity=".25"/><stop offset=".54" stop-color="gray" stop-opacity=".12"/><stop offset="1" stop-color="gray" stop-opacity=".1"/></linearGradient><path id="C" d="M484.991 105.485c-2.931 2.842-16.574 5.785-16.574 5.785s3.349-13.556 6.28-16.403a7.39 7.39 0 0 1 10.359.249 7.4 7.4 0 0 1-.065 10.369z"/><path id="D" d="M477.275 129.991c-4.029.796-17.057-4.153-17.057-4.153s10.173-9.574 14.177-10.355a7.38 7.38 0 0 1 2.924-.057c.969.177 1.893.545 2.718 1.083s1.533 1.237 2.085 2.053a7.41 7.41 0 0 1 1.126 2.701c.192.966.189 1.962-.009 2.927a7.41 7.41 0 0 1-1.142 2.694 7.4 7.4 0 0 1-2.098 2.04 7.39 7.39 0 0 1-2.724 1.067z"/><path id="E" d="M449.193 156.538c-3.857-1.336-12.626-12.2-12.626-12.2s13.598-3.115 17.466-1.779c.929.308 1.788.798 2.527 1.442a7.39 7.39 0 0 1 1.775 2.305 7.4 7.4 0 0 1 .749 2.812c.061.978-.072 1.958-.393 2.884s-.821 1.778-1.474 2.509-1.444 1.323-2.327 1.745-1.842.665-2.82.713-1.956-.098-2.877-.431z"/><path id="F" d="M423.388 171.837c-4.029-.665-14.485-9.912-14.485-9.912s12.888-5.372 16.912-4.707a7.4 7.4 0 0 1 4.812 2.99 7.41 7.41 0 0 1 1.289 5.519 7.4 7.4 0 0 1-2.988 4.814c-1.594 1.145-3.578 1.61-5.515 1.291l-.025.005z"/><path id="G" d="M448.841 115.241c-.005 4.087 7.403 15.944 7.403 15.944s7.398-11.842 7.398-15.924a7.4 7.4 0 0 0-.506-2.89 7.39 7.39 0 0 0-4.01-4.119 7.39 7.39 0 0 0-5.748 0c-.91.384-1.733.946-2.422 1.654a7.39 7.39 0 0 0-1.589 2.465 7.4 7.4 0 0 0-.506 2.89l-.02-.02z"/><path id="H" d="M418.91 133.513c1.219 3.901 11.815 12.996 11.815 12.996s3.526-13.515 2.297-17.415a7.4 7.4 0 0 0-3.663-4.154c-1.713-.858-3.691-1.017-5.519-.444s-3.362 1.833-4.279 3.515-1.147 3.654-.641 5.502h-.01z"/><path id="I" d="M392.284 155.268c.544 4.031 9.448 14.8 9.448 14.8s5.746-12.724 5.202-16.771a7.42 7.42 0 0 0-.89-2.791c-.48-.861-1.127-1.618-1.904-2.226a7.37 7.37 0 0 0-2.618-1.312c-.951-.259-1.945-.324-2.922-.193s-1.917.457-2.767.958-1.59 1.166-2.179 1.957a7.41 7.41 0 0 0-1.248 2.651 7.4 7.4 0 0 0-.122 2.927z"/></defs></svg>