<svg xmlns="http://www.w3.org/2000/svg" width="140" height="40" fill="none" xmlns:v="https://vecta.io/nano"><path d="M51.462 26.142c-1.728 0-3.078-.42-4.05-1.26-.972-.852-1.488-2.058-1.548-3.618l-.018-1.656.018-1.656c.06-1.524.582-2.7 1.566-3.528.996-.828 2.34-1.242 4.032-1.242 1.14 0 2.13.186 2.97.558.852.372 1.5.846 1.944 1.422.456.576.696 1.17.72 1.782a.34.34 0 0 1-.126.27c-.072.072-.162.108-.27.108h-2.628c-.12 0-.216-.018-.288-.054s-.132-.102-.18-.198c-.156-.348-.402-.648-.738-.9-.336-.264-.804-.396-1.404-.396-1.428 0-2.178.756-2.25 2.268l-.018 1.566.018 1.566c.072 1.584.84 2.376 2.304 2.376.708 0 1.272-.18 1.692-.54.432-.372.648-.936.648-1.692v-.342h-1.692c-.132 0-.24-.042-.324-.126a.5.5 0 0 1-.126-.342v-1.332c0-.132.042-.24.126-.324a.41.41 0 0 1 .324-.144H56.7a.41.41 0 0 1 .324.144c.084.084.126.192.126.324v2.052c0 1.02-.234 1.902-.702 2.646-.468.732-1.134 1.296-1.998 1.692-.852.384-1.848.576-2.988.576zm11.983 0c-1.488 0-2.634-.354-3.438-1.062s-1.242-1.704-1.314-2.988c-.012-.156-.018-.426-.018-.81l.018-.81c.072-1.272.522-2.262 1.35-2.97.828-.72 1.962-1.08 3.402-1.08 1.452 0 2.592.36 3.42 1.08.828.708 1.278 1.698 1.35 2.97.012.156.018.426.018.81l-.018.81c-.072 1.284-.51 2.28-1.314 2.988s-1.956 1.062-3.456 1.062zm0-2.196c.528 0 .918-.156 1.17-.468.252-.324.396-.816.432-1.476.012-.12.018-.36.018-.72l-.018-.72c-.036-.648-.186-1.134-.45-1.458-.252-.324-.636-.486-1.152-.486-.996 0-1.524.648-1.584 1.944l-.018.72.018.72c.024.66.162 1.152.414 1.476.264.312.654.468 1.17.468z" fill="#000"/><path d="M75.385 26.142c-1.716 0-3.06-.414-4.032-1.242-.96-.84-1.47-2.052-1.53-3.636l-.018-1.584.018-1.62c.06-1.56.582-2.76 1.566-3.6.984-.852 2.316-1.278 3.996-1.278 1.056 0 2.004.18 2.844.54.84.348 1.5.852 1.98 1.512.492.648.744 1.41.756 2.286v.036c0 .096-.042.18-.126.252a.38.38 0 0 1-.252.09h-2.43c-.156 0-.276-.03-.36-.09-.084-.072-.156-.198-.216-.378-.168-.612-.432-1.038-.792-1.278-.36-.252-.834-.378-1.422-.378-1.416 0-2.148.792-2.196 2.376l-.018 1.494.018 1.53c.048 1.584.78 2.376 2.196 2.376.588 0 1.068-.126 1.44-.378.372-.264.63-.69.774-1.278.048-.18.114-.3.198-.36.084-.072.21-.108.378-.108h2.43c.108 0 .198.036.27.108.084.072.12.162.108.27-.012.876-.264 1.644-.756 2.304-.48.648-1.14 1.152-1.98 1.512-.84.348-1.788.522-2.844.522zm11.703 0c-1.488 0-2.634-.354-3.438-1.062s-1.242-1.704-1.314-2.988c-.012-.156-.018-.426-.018-.81l.018-.81c.072-1.272.522-2.262 1.35-2.97.828-.72 1.962-1.08 3.402-1.08 1.452 0 2.592.36 3.42 1.08.828.708 1.278 1.698 1.35 2.97.012.156.018.426.018.81l-.018.81c-.072 1.284-.51 2.28-1.314 2.988s-1.956 1.062-3.456 1.062zm0-2.196c.528 0 .918-.156 1.17-.468.252-.324.396-.816.432-1.476.012-.12.018-.36.018-.72l-.018-.72c-.036-.648-.186-1.134-.45-1.458-.252-.324-.636-.486-1.152-.486-.996 0-1.524.648-1.584 1.944l-.018.72.018.72c.024.66.162 1.152.414 1.476.264.312.654.468 1.17.468zm7.026 2.016c-.132 0-.24-.042-.324-.126s-.126-.192-.126-.324v-8.46c0-.132.042-.24.126-.324s.192-.126.324-.126h2.07a.41.41 0 0 1 .324.144c.096.084.144.186.144.306v.72c.66-.78 1.548-1.17 2.664-1.17h.792c.132 0 .24.042.324.126s.126.192.126.324v1.854a.48.48 0 0 1-.126.324c-.084.084-.192.126-.324.126h-1.746c-.492 0-.876.138-1.152.414-.264.264-.396.642-.396 1.134v4.608a.41.41 0 0 1-.144.324c-.084.084-.192.126-.324.126h-2.232zm12.064.18c-1.488 0-2.634-.354-3.438-1.062s-1.242-1.704-1.314-2.988c-.012-.156-.018-.426-.018-.81l.018-.81c.072-1.272.522-2.262 1.35-2.97.828-.72 1.962-1.08 3.402-1.08 1.452 0 2.592.36 3.42 1.08.828.708 1.278 1.698 1.35 2.97.012.156.018.426.018.81l-.018.81c-.072 1.284-.51 2.28-1.314 2.988s-1.956 1.062-3.456 1.062zm0-2.196c.528 0 .918-.156 1.17-.468.252-.324.396-.816.432-1.476.012-.12.018-.36.018-.72l-.018-.72c-.036-.648-.186-1.134-.45-1.458-.252-.324-.636-.486-1.152-.486-.996 0-1.524.648-1.584 1.944l-.018.72.018.72c.024.66.162 1.152.414 1.476.264.312.654.468 1.17.468zm7.025 2.016c-.132 0-.24-.042-.324-.126s-.126-.192-.126-.324v-8.46c0-.132.042-.24.126-.324s.192-.126.324-.126h2.07c.132 0 .24.042.324.126a.41.41 0 0 1 .144.324v.684c.324-.396.738-.714 1.242-.954.516-.24 1.098-.36 1.746-.36 1.056 0 1.914.36 2.574 1.08.66.708.99 1.704.99 2.988v5.022a.48.48 0 0 1-.126.324c-.084.084-.192.126-.324.126h-2.268a.48.48 0 0 1-.324-.126.48.48 0 0 1-.126-.324v-4.914c0-.564-.138-.996-.414-1.296-.276-.312-.672-.468-1.188-.468-.504 0-.9.156-1.188.468-.288.3-.432.732-.432 1.296v4.914a.48.48 0 0 1-.126.324c-.084.084-.192.126-.324.126h-2.25zm13.925.18a4.17 4.17 0 0 1-1.746-.36c-.516-.252-.924-.588-1.224-1.008a2.51 2.51 0 0 1-.432-1.422c0-.828.336-1.494 1.008-1.998.684-.504 1.62-.852 2.808-1.044l2.25-.342v-.252c0-.456-.096-.792-.288-1.008s-.516-.324-.972-.324c-.276 0-.504.048-.684.144s-.366.228-.558.396c-.168.144-.294.24-.378.288-.036.096-.102.144-.198.144h-1.962c-.12 0-.222-.036-.306-.108-.072-.084-.102-.18-.09-.288.012-.324.168-.684.468-1.08.312-.396.78-.738 1.404-1.026.636-.288 1.416-.432 2.34-.432 1.476 0 2.568.33 3.276.99.708.648 1.062 1.524 1.062 2.628v5.472a.48.48 0 0 1-.126.324c-.084.084-.192.126-.324.126h-2.088a.48.48 0 0 1-.324-.126.48.48 0 0 1-.126-.324v-.63c-.264.372-.636.678-1.116.918-.468.228-1.026.342-1.674.342zm.846-2.052c.552 0 .996-.18 1.332-.54.348-.36.522-.888.522-1.584v-.252l-1.53.27c-1.08.192-1.62.57-1.62 1.134a.84.84 0 0 0 .378.72c.252.168.558.252.918.252zM14.221 4.989c1.425-.5 2.991.174 3.497 1.504.387 1.018.041 2.125-.781 2.813l.444 1.211.706.815c.161.187.406.276.651.246a8.65 8.65 0 0 1 1.961-.017c.218.023.435-.049.591-.201l.51-.493.376-1.094a1.72 1.72 0 0 1-.239-1.573 1.74 1.74 0 0 1 2.308-1.037c.805.33 1.243 1.226 1.008 2.059-.15.531-.529.928-.995 1.125l-.416 1.213.095.668a.77.77 0 0 0 .368.551c.67.406 1.285.903 1.825 1.478a.77.77 0 0 0 .713.224l1.34-.269 1.514-.839a2.14 2.14 0 0 1 1.106-1.852c1.059-.587 2.399-.193 2.964.883a2.15 2.15 0 0 1-.733 2.787 2.17 2.17 0 0 1-2.278.051l-1.523.844-.85.903c-.228.242-.309.585-.222.906a8.62 8.62 0 0 1 .278 1.664c.022.328.207.623.498.78l1.11.598 2.199.415a1.74 1.74 0 0 1 1.468-.399 1.73 1.73 0 0 1 1.358 2.128c-.216.835-1.038 1.391-1.898 1.281a1.73 1.73 0 0 1-1.314-.901l-2.214-.417-1.365.166c-.252.031-.471.189-.574.419a8.69 8.69 0 0 1-1.668 2.469c-.173.18-.238.436-.175.677l.339 1.31.838 1.31c.922-.138 1.88.259 2.412 1.091.715 1.118.391 2.598-.722 3.319a2.45 2.45 0 0 1-3.355-.697 2.4 2.4 0 0 1-.102-2.482l-.889-1.39-1.093-.897c-.162-.134-.383-.169-.58-.099l-.672.209a8.65 8.65 0 0 1-3.687.171c-.175-.029-.353.02-.487.136l-.587.508-.436 1.072c.295.456.371 1.042.151 1.583a1.74 1.74 0 0 1-2.362.908c-.785-.374-1.173-1.292-.891-2.112a1.72 1.72 0 0 1 1.056-1.068l.484-1.188-.09-1.043c-.872-.544-1.648-1.243-2.282-2.069l-1.491.147-1.396.688c.009.933-.473 1.822-1.318 2.252-1.195.607-2.663.07-3.278-1.201s-.146-2.791 1.049-3.398c.894-.454 1.941-.268 2.669.387l1.316-.649.913-.977a.25.25 0 0 0 .059-.238v-.001a8.51 8.51 0 0 1 .044-4.607.25.25 0 0 0-.048-.23l-.788-.938-1.698-.888a1.74 1.74 0 0 1-1.51-.051c-.881-.461-1.198-1.569-.673-2.428a1.75 1.75 0 0 1 2.24-.653c.516.25.849.717.947 1.234l1.698.888 1.208.113c.084.008.166-.027.219-.092a8.6 8.6 0 0 1 1.942-1.759c.203-.135.33-.358.333-.601l.012-1.094-.474-1.29c-1.027-.074-1.956-.694-2.324-1.661-.506-1.33.239-2.813 1.664-3.312z" fill="#ec5863"/><path d="M25.99 18.477c-.917-3.403-4.434-5.422-7.856-4.511s-5.452 4.41-4.535 7.813 4.434 5.422 7.855 4.511 5.452-4.41 4.535-7.812z" fill="#f58a97"/><path d="M20.948 24.411c-3.101.826-6.28-.754-7.531-3.591a6.4 6.4 0 0 0 .182.958c.917 3.403 4.434 5.422 7.855 4.511s5.452-4.41 4.535-7.812a6.41 6.41 0 0 0-.325-.92c.342 3.078-1.616 6.028-4.717 6.854z" fill="#f07281"/><path d="M11.324 33.496a1.83 1.83 0 0 0-2.237-1.285c-.974.259-1.553 1.256-1.292 2.225a1.83 1.83 0 0 0 2.237 1.285c.974-.259 1.553-1.256 1.291-2.225zm22.787-5.558c-.172-.64-.834-1.02-1.478-.848a1.2 1.2 0 0 0-.853 1.47c.172.64.834 1.02 1.478.848a1.2 1.2 0 0 0 .853-1.469zM30.843 6.002a1.78 1.78 0 0 0-2.176-1.25c-.948.253-1.511 1.222-1.257 2.164a1.78 1.78 0 0 0 2.176 1.25c.948-.253 1.511-1.222 1.257-2.164zM20.196 22.048a1.66 1.66 0 0 0-2.029-1.165c-.884.235-1.408 1.139-1.171 2.018a1.66 1.66 0 0 0 2.029 1.165c.884-.235 1.408-1.139 1.171-2.018zm4.115-2.466a1.13 1.13 0 0 0-1.381-.793 1.12 1.12 0 0 0-.797 1.374 1.13 1.13 0 0 0 1.381.793 1.12 1.12 0 0 0 .797-1.373zm-4.353-2.486a.95.95 0 0 0-1.16-.666.94.94 0 0 0-.67 1.153.95.95 0 0 0 1.16.666.94.94 0 0 0 .67-1.153z" fill="#eb5569"/></svg>